<svg width="487" height="172" viewBox="0 0 487 172" fill="none" xmlns="http://www.w3.org/2000/svg">
<g clip-path="url(#clip0_206_5856)">
<rect width="487" height="172" fill="#09DBCE"/>
<rect x="409" y="7" width="119" height="9" fill="white"/>
<rect x="-42" y="51" width="119" height="9" fill="white"/>
<rect x="188" y="135" width="69" height="5" fill="white"/>
<rect x="211" y="130" width="42" height="5" fill="white"/>
<rect x="369" y="16" width="69" height="5" fill="white"/>
<rect x="-29" y="46" width="69" height="5" fill="white"/>
<rect x="-7" y="2" width="69" height="5" fill="white"/>
<rect x="198" y="49" width="69" height="5" fill="white"/>
<rect x="251" width="69" height="5" fill="white"/>
<rect opacity="0.4" x="115" y="90" width="41" height="5" fill="white"/>
<path opacity="0.4" fill-rule="evenodd" clip-rule="evenodd" d="M130 18H199V23H141V28H158V33H128V28H111V23H130V18Z" fill="white"/>
<path opacity="0.2" fill-rule="evenodd" clip-rule="evenodd" d="M349 33H308V38H296V43H326V38H349V33Z" fill="white"/>
<rect x="218" y="45" width="30" height="5" fill="white"/>
<path fill-rule="evenodd" clip-rule="evenodd" d="M363 68H432V73H434V78H420V81H390V76H404V73H363V68Z" fill="white"/>
<rect x="461" y="75" width="30" height="5" fill="white"/>
<rect x="48" y="-2" width="30" height="5" fill="white"/>
<rect x="268" y="5" width="30" height="5" fill="white"/>
<rect x="422" y="2" width="30" height="5" fill="white"/>
<rect x="-8" y="41" width="30" height="5" fill="white"/>
<rect x="156" y="76" width="30" height="5" fill="white"/>
<rect x="39.5" y="150.5" width="100" height="23" fill="#ECECFA" stroke="#7A13CE"/>
<rect x="0.5" y="-0.5" width="82" height="78" transform="matrix(1 0 0 -1 39 150)" fill="#ECECFA" stroke="#7A13CE"/>
<rect x="48" y="156" width="23" height="16" fill="#7A13CE"/>
<rect x="76.5" y="156.5" width="9" height="15" fill="#B631DA" stroke="#B631DA"/>
<rect x="91.5" y="156.5" width="9" height="15" fill="#B631DA" stroke="#B631DA"/>
<rect x="106.5" y="156.5" width="9" height="15" fill="#B631DA" stroke="#B631DA"/>
<rect x="121.5" y="156.5" width="9" height="15" fill="#B631DA" stroke="#B631DA"/>
<rect x="48" y="90" width="10" height="10" fill="#7A13CE"/>
<rect x="62.5" y="90.5" width="9" height="9" fill="#B631DA" stroke="#B631DA"/>
<rect x="76" y="90" width="10" height="10" fill="#7A13CE"/>
<rect x="48.5" y="104.5" width="9" height="9" fill="#B631DA" stroke="#B631DA"/>
<rect x="62" y="104" width="10" height="10" fill="#7A13CE"/>
<rect x="76.5" y="104.5" width="9" height="9" fill="#B631DA" stroke="#B631DA"/>
<rect x="48" y="117" width="10" height="10" fill="#7A13CE"/>
<rect x="62.5" y="117.5" width="9" height="9" fill="#B631DA" stroke="#B631DA"/>
<rect x="76" y="117" width="10" height="10" fill="#7A13CE"/>
<rect x="48.5" y="131.5" width="9" height="9" fill="#B631DA" stroke="#B631DA"/>
<rect x="62" y="131" width="10" height="10" fill="#7A13CE"/>
<rect x="76.5" y="131.5" width="9" height="9" fill="#B631DA" stroke="#B631DA"/>
<rect x="89" y="69" width="24" height="2" fill="#B631DA"/>
<rect x="100" y="69" width="2" height="4" fill="#B631DA"/>
<rect x="0.5" y="-0.5" width="87" height="12" transform="matrix(1 0 0 -1 39 84)" fill="#ECECFA" stroke="#7A13CE"/>
<rect x="0.5" y="-0.5" width="13" height="19" transform="matrix(1 0 0 -1 121 150)" fill="white" stroke="#B631DA"/>
<rect x="48.5" y="54.5" width="21" height="23" fill="white" stroke="#7A13CE"/>
<rect x="57" y="61" width="4" height="10" fill="#7A13CE"/>
<rect x="54" y="68" width="4" height="10" transform="rotate(-90 54 68)" fill="#7A13CE"/>
<rect x="92" y="90" width="23.3898" height="51.3559" fill="#7A13CE"/>
<rect x="-68.5" y="143.5" width="99" height="30" fill="white" stroke="#7A13CE"/>
<rect x="-68.5" y="143.5" width="99" height="9" stroke="#B631DA"/>
<rect x="0.5" y="-0.5" width="80" height="69" transform="matrix(1 0 0 -1 -60 143)" fill="#ECECFA" stroke="#7A13CE"/>
<rect x="-2" y="156" width="10" height="16" fill="#7A13CE"/>
<rect x="13.5" y="156.5" width="9" height="15" fill="#B631DA" stroke="#B631DA"/>
<rect x="4" y="84" width="10" height="10" fill="#7A13CE"/>
<rect x="4.5" y="98.5" width="9" height="9" fill="#B631DA" stroke="#B631DA"/>
<rect x="4" y="111" width="10" height="10" fill="#7A13CE"/>
<rect x="4.5" y="125.5" width="9" height="9" fill="#B631DA" stroke="#B631DA"/>
<rect x="160.5" y="94.5" width="56" height="9" fill="#ECECFA" stroke="#7A13CE"/>
<rect x="137.5" y="149.5" width="79" height="24" fill="#ECECFA" stroke="#7A13CE"/>
<rect x="137.5" y="149.5" width="79" height="7" stroke="#7A13CE"/>
<rect x="0.5" y="-0.5" width="47" height="34" transform="matrix(1 0 0 -1 145 149)" fill="#ECECFA" stroke="#7A13CE"/>
<rect x="163.5" y="103.5" width="28" height="12" fill="#ECECFA" stroke="#7A13CE"/>
<rect x="-0.5" y="0.5" width="22" height="46" transform="matrix(-1 0 0 1 213 103)" fill="white" stroke="#7A13CE"/>
<rect x="170.5" y="107.5" width="7" height="8" fill="white" stroke="#7A13CE"/>
<rect x="177.5" y="107.5" width="7" height="8" fill="white" stroke="#B631DA"/>
<rect x="184.5" y="107.5" width="7" height="8" fill="white" stroke="#7A13CE"/>
<rect x="142.5" y="156.5" width="20" height="17" fill="white" stroke="#7A13CE"/>
<rect x="158.5" y="156.5" width="4" height="17" stroke="#B631DA"/>
<line x1="202.5" y1="105" x2="202.5" y2="149" stroke="#B631DA"/>
<line x1="193" y1="111.5" x2="212.2" y2="111.5" stroke="#B631DA"/>
<line x1="193" y1="117.5" x2="212.2" y2="117.5" stroke="#B631DA"/>
<line x1="193" y1="123.5" x2="212.2" y2="123.5" stroke="#B631DA"/>
<line x1="193" y1="130.5" x2="212.2" y2="130.5" stroke="#B631DA"/>
<line x1="193" y1="136.5" x2="212.2" y2="136.5" stroke="#B631DA"/>
<line x1="193" y1="143.5" x2="212.2" y2="143.5" stroke="#B631DA"/>
<rect x="169" y="160" width="8" height="12" fill="#7A13CE"/>
<rect x="181.5" y="160.5" width="7" height="11" fill="#B631DA" stroke="#B631DA"/>
<rect x="193" y="160" width="8" height="12" fill="#7A13CE"/>
<rect x="205.5" y="160.5" width="7" height="11" fill="#B631DA" stroke="#B631DA"/>
<rect x="150.5" y="129.5" width="7" height="7" fill="#B631DA" stroke="#B631DA"/>
<rect x="160" y="129" width="8" height="8" fill="#7A13CE"/>
<rect x="170.5" y="129.5" width="7" height="7" fill="#B631DA" stroke="#B631DA"/>
<rect x="180" y="129" width="8" height="8" fill="#7A13CE"/>
<rect x="150" y="119" width="8" height="8" fill="#7A13CE"/>
<rect x="160.5" y="119.5" width="7" height="7" fill="#B631DA" stroke="#B631DA"/>
<rect x="170" y="119" width="8" height="8" fill="#7A13CE"/>
<rect x="180.5" y="119.5" width="7" height="7" fill="#B631DA" stroke="#B631DA"/>
<rect x="150" y="139" width="8" height="8" fill="#7A13CE"/>
<rect x="160.5" y="139.5" width="7" height="7" fill="#B631DA" stroke="#B631DA"/>
<rect x="170" y="139" width="8" height="8" fill="#7A13CE"/>
<rect x="180.5" y="139.5" width="7" height="7" fill="#B631DA" stroke="#B631DA"/>
<rect x="237.5" y="135.5" width="61" height="38" fill="#ECECFA" stroke="#7A13CE"/>
<rect x="237.5" y="135.5" width="61" height="10" fill="#ECECFA" stroke="#7A13CE"/>
<rect x="-0.5" y="0.5" width="35" height="99" transform="matrix(-1 0 0 1 337 74)" fill="#ECECFA" stroke="#7A13CE"/>
<rect x="237.5" y="145.5" width="24.1572" height="27.9308" fill="white" stroke="#7A13CE"/>
<rect x="266" y="151" width="12" height="22" fill="#7A13CE"/>
<rect width="22.6415" height="93.0818" transform="translate(308 81)" fill="#ECECFA"/>
<rect x="308" y="81" width="24" height="10" fill="#7A13CE"/>
<rect x="308.5" y="96.5" width="9" height="9" fill="white" stroke="#7A13CE"/>
<rect x="322.5" y="96.5" width="9" height="9" fill="white" stroke="#B631DA"/>
<rect x="308.5" y="111.5" width="23" height="9" fill="#B631DA" stroke="#B631DA"/>
<rect x="308" y="126" width="24" height="10" fill="#7A13CE"/>
<rect x="308.5" y="141.5" width="9" height="9" fill="white" stroke="#B631DA"/>
<rect x="322.5" y="141.5" width="9" height="9" fill="white" stroke="#7A13CE"/>
<rect x="308.5" y="156.5" width="23" height="17" fill="white" stroke="#7A13CE"/>
<rect x="-0.5" y="0.5" width="35" height="83" transform="matrix(-1 0 0 1 376 90)" fill="#ECECFA" stroke="#7A13CE"/>
<rect x="347.5" y="96.5" width="23" height="9" fill="#B631DA" stroke="#B631DA"/>
<rect x="347.5" y="111.5" width="23" height="9" fill="#7A13CE" stroke="#7A13CE"/>
<rect x="347.5" y="126.5" width="9" height="9" fill="white" stroke="#B631DA"/>
<rect x="361.5" y="126.5" width="9" height="9" fill="white" stroke="#7A13CE"/>
<rect x="347.5" y="139.5" width="23" height="9" fill="#B631DA" stroke="#B631DA"/>
<rect x="347.5" y="154.5" width="23" height="18" fill="white" stroke="#7A13CE"/>
<rect x="282.5" y="151.5" width="11" height="21" fill="#B631DA" stroke="#B631DA"/>
<rect x="231" y="103" width="1" height="71" fill="#B631DA"/>
<rect x="231.5" y="103.5" width="17" height="10" fill="white" stroke="#7A13CE"/>
<circle cx="267.805" cy="140.805" r="8.30503" fill="white" stroke="#7A13CE"/>
<rect x="392.5" y="156.5" width="97" height="5" fill="#ECECFA" stroke="#7A13CE"/>
<rect x="392.5" y="108.5" width="97" height="48" fill="white" stroke="#7A13CE"/>
<rect x="-0.5" y="0.5" width="27" height="38" transform="matrix(-1 0 0 1 488 70)" fill="#ECECFA" stroke="#7A13CE"/>
<rect x="467" y="75" width="8" height="8" fill="#7A13CE"/>
<rect x="477.5" y="75.5" width="7" height="7" fill="#B631DA" stroke="#B631DA"/>
<rect x="467.5" y="85.5" width="7" height="7" fill="#B631DA" stroke="#B631DA"/>
<rect x="477" y="85" width="8" height="8" fill="#7A13CE"/>
<rect x="467" y="95" width="8" height="8" fill="#7A13CE"/>
<rect x="477.5" y="95.5" width="7" height="7" fill="#B631DA" stroke="#B631DA"/>
<rect x="0.5" y="-0.5" width="6" height="10" transform="matrix(1 0 0 -1 392 108)" fill="white" stroke="#7A13CE"/>
<rect x="0.5" y="-0.5" width="6" height="10" transform="matrix(1 0 0 -1 440 108)" fill="white" stroke="#7A13CE"/>
<rect x="0.5" y="-0.5" width="6" height="10" transform="matrix(1 0 0 -1 416 108)" fill="white" stroke="#7A13CE"/>
<rect x="0.5" y="-0.5" width="6" height="10" transform="matrix(1 0 0 -1 404 108)" fill="white" stroke="#B631DA"/>
<rect x="0.5" y="-0.5" width="6" height="10" transform="matrix(1 0 0 -1 427 108)" fill="white" stroke="#B631DA"/>
<rect x="400" y="124" width="11" height="32" fill="#B631DA"/>
<rect x="0.5" y="-0.5" width="97" height="9" transform="matrix(1 0 0 -1 392 117)" fill="#ECECFA" stroke="#7A13CE"/>
<rect x="470" y="124" width="12" height="32" fill="#B631DA"/>
<rect x="452" y="124" width="12" height="32" fill="#7A13CE"/>
<rect x="435" y="124" width="12" height="32" fill="#B631DA"/>
<rect x="417" y="124" width="12" height="32" fill="#7A13CE"/>
<line x1="392" y1="167.5" x2="488.098" y2="167.5" stroke="#B631DA"/>
<rect x="389.5" y="161.5" width="101" height="6" fill="#ECECFA" stroke="#B631DA"/>
<rect x="387.5" y="166.5" width="106" height="7" fill="#ECECFA" stroke="#7A13CE"/>
<path d="M446.5 97.5V98.5H392.5V97.5C392.5 82.5883 404.588 70.5 419.5 70.5C434.412 70.5 446.5 82.5883 446.5 97.5Z" fill="#ECECFA" stroke="#7A13CE"/>
<line x1="417.5" y1="71" x2="417.5" y2="54.4146" stroke="#B631DA"/>
<line x1="393" y1="93.5" x2="447" y2="93.5" stroke="#B631DA"/>
<path d="M431.96 54.5H417.5V63.5H431.96L428.61 59.3123L428.36 59L428.61 58.6877L431.96 54.5Z" fill="white" stroke="#7A13CE"/>
<g filter="url(#filter0_b_206_5856)">
<path d="M447 0V40H487L447 0Z" fill="#CFF6F5"/>
</g>
<g filter="url(#filter1_b_206_5856)">
<path d="M487 40V0H447L487 40Z" fill="#ECECFA"/>
</g>
</g>
<defs>
<filter id="filter0_b_206_5856" x="431" y="-16" width="72" height="72" filterUnits="userSpaceOnUse" color-interpolation-filters="sRGB">
<feFlood flood-opacity="0" result="BackgroundImageFix"/>
<feGaussianBlur in="BackgroundImageFix" stdDeviation="8"/>
<feComposite in2="SourceAlpha" operator="in" result="effect1_backgroundBlur_206_5856"/>
<feBlend mode="normal" in="SourceGraphic" in2="effect1_backgroundBlur_206_5856" result="shape"/>
</filter>
<filter id="filter1_b_206_5856" x="431" y="-16" width="72" height="72" filterUnits="userSpaceOnUse" color-interpolation-filters="sRGB">
<feFlood flood-opacity="0" result="BackgroundImageFix"/>
<feGaussianBlur in="BackgroundImageFix" stdDeviation="8"/>
<feComposite in2="SourceAlpha" operator="in" result="effect1_backgroundBlur_206_5856"/>
<feBlend mode="normal" in="SourceGraphic" in2="effect1_backgroundBlur_206_5856" result="shape"/>
</filter>
<clipPath id="clip0_206_5856">
<rect width="487" height="172" fill="white"/>
</clipPath>
</defs>
</svg>
