<svg width="1053" height="160" viewBox="0 0 1053 160" fill="none" xmlns="http://www.w3.org/2000/svg">
<g clip-path="url(#clip0_191_1497)">
<path d="M297.444 123.596H310.727V149.583H290.017C278.167 149.583 268.798 146.152 261.922 139.277C255.046 132.401 251.616 122.976 251.616 110.989V64.9673H232.077V58.7117L274.778 13.2828H280.344V41.5295H310.148V64.9811H280.841V107.089C280.841 112.367 282.274 116.431 285.14 119.297C288.006 122.163 292.112 123.596 297.444 123.596V123.596Z" fill="black"/>
<path d="M456.121 41.5294H485.043L449.673 149.583H426.221L401.695 93.6961L377.761 149.583H354.213L318.457 41.5294H348.164L369.466 105.918L397.603 42.3148H405.815L434.833 106.111L456.135 41.5294H456.121Z" fill="black"/>
<path d="M586.745 41.3228H608.626V149.39H585.67L583.135 139.718C573.297 148.316 561.64 152.615 548.164 152.615C537.485 152.615 527.813 150.134 519.146 145.188C510.479 140.241 503.713 133.379 498.822 124.616C493.93 115.853 491.492 106.097 491.492 95.3496C491.492 84.6021 493.93 74.9845 498.822 66.2763C503.713 57.5818 510.479 50.775 519.146 45.856C527.813 40.9369 537.485 38.4843 548.164 38.4843C561.901 38.4843 573.724 42.8798 583.631 51.6707L586.759 41.309L586.745 41.3228ZM529.438 116.5C535.005 122.136 542.032 124.947 550.493 124.947C558.953 124.947 565.98 122.149 571.547 116.542C577.113 110.947 579.897 103.879 579.897 95.3359C579.897 86.793 577.113 79.7382 571.547 74.1302C565.98 68.536 558.953 65.7251 550.493 65.7251C542.032 65.7251 535.005 68.5498 529.438 74.1715C523.872 79.8071 521.089 86.8619 521.089 95.3221C521.089 103.782 523.872 110.837 529.438 116.473V116.5Z" fill="black"/>
<path d="M636.679 149.583V2.53528H665.89V149.583H636.679Z" fill="black"/>
<path d="M781.964 41.3228H803.844V149.39H780.889L778.353 139.718C768.515 148.316 756.858 152.615 743.383 152.615C732.704 152.615 723.031 150.134 714.364 145.188C705.698 140.241 698.932 133.379 694.041 124.616C689.149 115.853 686.71 106.097 686.71 95.3496C686.71 84.6021 689.149 74.9845 694.041 66.2763C698.932 57.5818 705.698 50.775 714.364 45.856C723.031 40.9369 732.704 38.4843 743.383 38.4843C757.12 38.4843 768.942 42.8798 778.849 51.6707L781.977 41.309L781.964 41.3228ZM724.657 116.5C730.224 122.136 737.251 124.947 745.711 124.947C754.172 124.947 761.199 122.149 766.765 116.542C772.332 110.947 775.115 103.879 775.115 95.3359C775.115 86.793 772.332 79.7382 766.765 74.1302C761.199 68.536 754.172 65.7251 745.711 65.7251C737.251 65.7251 730.224 68.5498 724.657 74.1715C719.091 79.8071 716.307 86.8619 716.307 95.3221C716.307 103.782 719.091 110.837 724.657 116.473V116.5Z" fill="black"/>
<path d="M829.831 149.583V118.319H860.71V149.583H829.831Z" fill="black"/>
<path d="M886.697 27.1581V0H915.811V27.1581H886.697ZM886.697 149.583V41.5294H915.908V149.583H886.697Z" fill="black"/>
<path d="M1023.19 2.53528H1052.4V149.583H1030.81L1027.39 140.599C1017.82 148.743 1006.52 152.807 993.483 152.807C977.127 152.807 963.583 147.365 952.835 136.493C942.088 125.622 936.714 111.967 936.714 95.5563C936.714 87.4819 938.147 79.9035 941.013 72.835C943.879 65.7664 947.806 59.7313 952.78 54.7158C957.768 49.7003 963.775 45.7458 970.803 42.8384C977.844 39.9449 985.394 38.4843 993.469 38.4843C1004.48 38.4843 1014.37 41.4468 1023.18 47.3717V2.53528H1023.19ZM974.881 116.748C980.448 122.356 987.461 125.153 995.935 125.153C1004.41 125.153 1011.42 122.342 1016.99 116.707C1022.56 111.071 1025.34 104.017 1025.34 95.5563C1025.34 87.0961 1022.56 80.0413 1016.99 74.4058C1011.42 68.7702 1004.4 65.9593 995.935 65.9593C987.475 65.9593 980.448 68.7564 974.881 74.3644C969.315 79.9724 966.531 87.0272 966.531 95.5701C966.531 104.113 969.315 111.168 974.881 116.776V116.748Z" fill="black"/>
<path d="M135.667 0H47.7299C46.3934 0 45.1395 0.730279 44.4643 1.8877L42.6593 5.0155L42.4113 5.44265L36.4588 15.7492L8.41888 64.3197L2.21839 75.0396L1.73613 75.8801L0.48226 78.0296C0.165346 78.6634 0 79.3248 0 80C0 80.6752 0.165346 81.3365 0.496039 81.9428L1.74991 84.0923L2.24595 84.9604L8.44643 95.6941L36.5002 144.292L42.4664 154.64L42.7007 155.026L44.4781 158.112C45.1533 159.283 46.4072 160 47.7437 160H135.667C137.031 160 138.285 159.27 138.946 158.112L140.723 155.026L146.924 144.292L174.991 95.7079L180.958 85.36L181.164 84.9742L182.914 81.9566C183.245 81.3365 183.424 80.6614 183.41 80C183.424 79.3248 183.245 78.6359 182.914 78.0434L181.178 75.0396L180.944 74.64L174.978 64.3334L146.938 15.7492L140.737 5.0155L138.932 1.8877C138.271 0.730279 137.017 0 135.667 0ZM132.801 4.97416C132.966 4.97416 133.131 4.98794 133.297 5.0155C134.44 5.15329 135.487 5.82845 136.066 6.87565L141.206 15.7492L172.112 69.2938H172.125L175.157 74.5711L175.198 74.64H175.212L177.168 78.0434L177.224 78.1674C177.527 78.7323 177.678 79.3662 177.664 80C177.678 80.6752 177.499 81.3365 177.168 81.9566L175.212 85.36L172.112 90.7199L141.164 144.278L136.066 153.124C135.391 154.296 134.137 155.012 132.801 155.012H50.6097C49.2456 155.012 48.0193 154.282 47.3303 153.124L45.3324 149.666L42.2322 144.278L11.2987 90.7199L6.06269 81.6259C5.75956 81.1299 5.63555 80.5649 5.63555 80C5.63555 79.4351 5.75956 78.8701 6.06269 78.3741L11.2987 69.2938L42.2046 15.7492L45.2911 10.403L47.3855 6.77919C47.9917 5.78712 48.97 5.15329 50.0861 5.0155C50.2652 5.00172 50.4168 4.97416 50.5959 4.97416H132.787H132.801Z" fill="black"/>
<path d="M51.4915 21.1368L17.4716 80.0138L51.5053 138.96L85.5115 80.0689L51.4915 21.1368Z" fill="black"/>
<path d="M128.805 15.9559H60.7648L94.7572 74.8467H162.811L128.805 15.9559Z" fill="black"/>
<path d="M162.838 85.5804H94.826L60.8198 144.499H128.805L162.838 85.5804Z" fill="black"/>
</g>
<defs>
<clipPath id="clip0_191_1497">
<rect width="1052.4" height="160" fill="white"/>
</clipPath>
</defs>
</svg>
