<svg width="64" height="64" viewBox="0 0 64 64" fill="none" xmlns="http://www.w3.org/2000/svg">
<path d="M34.3333 25C34.3333 23.7113 33.2886 22.6666 32 22.6666C30.7113 22.6666 29.6666 23.7113 29.6666 25V32C29.6666 32.6188 29.9125 33.2123 30.3501 33.6499L35.0167 38.3166C35.928 39.2278 37.4053 39.2278 38.3166 38.3166C39.2278 37.4053 39.2278 35.928 38.3166 35.0167L34.3333 31.0335V25Z" fill="#7A13CE"/>
<path fill-rule="evenodd" clip-rule="evenodd" d="M32 6.33331C17.8468 6.33331 6.33331 17.6982 6.33331 31.7666V55.3333C6.33331 56.622 7.37798 57.6666 8.66665 57.6666H55.3333C56.622 57.6666 57.6666 56.622 57.6666 55.3333V31.7666C57.6666 17.6982 46.1531 6.33331 32 6.33331ZM32 15.6666C22.9793 15.6666 15.6666 22.9793 15.6666 32C15.6666 41.0206 22.9793 48.3333 32 48.3333C41.0206 48.3333 48.3333 41.0206 48.3333 32C48.3333 22.9793 41.0206 15.6666 32 15.6666Z" fill="#7A13CE"/>
</svg>
