<svg width="64" height="64" viewBox="0 0 64 64" fill="none" xmlns="http://www.w3.org/2000/svg">
<path d="M34.6667 5.33317C34.6667 3.86041 33.4728 2.6665 32.0001 2.6665C30.5273 2.6665 29.3334 3.86041 29.3334 5.33317V15.9998C29.3334 17.4726 30.5273 18.6665 32.0001 18.6665C33.4728 18.6665 34.6667 17.4726 34.6667 15.9998V5.33317Z" fill="#B631DA"/>
<path d="M52.7419 15.0287C53.7833 13.9873 53.7833 12.2988 52.7419 11.2574C51.7005 10.216 50.0121 10.2161 48.9707 11.2575L41.4283 18.7999C40.3869 19.8413 40.3869 21.5298 41.4283 22.5712C42.4697 23.6126 44.1581 23.6125 45.1995 22.5711L52.7419 15.0287Z" fill="#B631DA"/>
<path d="M22.572 41.4267C23.6134 42.4681 23.6134 44.1565 22.572 45.1979L15.0296 52.7405C13.9882 53.7819 12.2998 53.7819 11.2584 52.7405C10.217 51.6991 10.2169 50.0107 11.2583 48.9693L18.8008 41.4267C19.8422 40.3853 21.5306 40.3853 22.572 41.4267Z" fill="#B631DA"/>
<path d="M5.33341 29.3332C3.86066 29.3332 2.66675 30.5271 2.66675 31.9998C2.66675 33.4726 3.86066 34.6665 5.33341 34.6665H16.0001C17.4728 34.6665 18.6667 33.4726 18.6667 31.9998C18.6667 30.5271 17.4728 29.3332 16.0001 29.3332H5.33341Z" fill="#B631DA"/>
<path d="M11.2583 11.2575C12.2997 10.2161 13.9882 10.216 15.0296 11.2574L22.5721 18.7999C23.6135 19.8413 23.6135 21.5297 22.5721 22.5711C21.5307 23.6125 19.8422 23.6125 18.8008 22.5711L11.2583 15.0287C10.2169 13.9873 10.2169 12.2989 11.2583 11.2575Z" fill="#B631DA"/>
<path d="M27.4478 27.4476C28.0783 26.8171 28.9821 26.5435 29.8564 26.7183L56.5231 32.0517C57.5807 32.2632 58.4068 33.091 58.6161 34.149C58.8254 35.2071 58.3767 36.2871 57.4793 36.8853L52.1858 40.4143L57.8857 46.1143C58.9271 47.1557 58.9271 48.8441 57.8857 49.8855L49.8857 57.8855C48.8443 58.9269 47.1559 58.9269 46.1145 57.8855L40.4146 52.1856L36.8856 57.4791C36.2873 58.3765 35.2073 58.8252 34.1493 58.6158C33.0912 58.4065 32.2634 57.5805 32.0519 56.5229L26.7186 29.8562C26.5437 28.9819 26.8174 28.0781 27.4478 27.4476Z" fill="#B631DA"/>
</svg>
