<svg width="64" height="64" viewBox="0 0 64 64" fill="none" xmlns="http://www.w3.org/2000/svg">
<path fill-rule="evenodd" clip-rule="evenodd" d="M49.0504 15.3067L35.1513 9.34997C33.1389 8.48751 30.861 8.48751 28.8486 9.34996L14.9495 15.3067C13.969 15.7269 13.3333 16.691 13.3333 17.7578V31.7655C13.3333 36.9327 15.8287 41.7818 20.0334 44.7852L28.9 51.1185C30.7544 52.443 33.2455 52.443 35.0999 51.1185L43.9664 44.7852C48.1711 41.7818 50.6666 36.9327 50.6666 31.7655V17.7578C50.6666 16.691 50.0309 15.7269 49.0504 15.3067ZM41.5617 25.2494C42.2517 24.3869 42.1118 23.1283 41.2493 22.4383C40.3868 21.7482 39.1282 21.8881 38.4382 22.7506L29.1674 34.3391L25.4141 30.5858C24.6331 29.8047 23.3668 29.8047 22.5857 30.5858C21.8047 31.3668 21.8047 32.6332 22.5857 33.4142L27.524 38.3525C28.5776 39.4061 30.3132 39.31 31.244 38.1465L41.5617 25.2494Z" fill="#B631DA"/>
</svg>
