<svg width="64" height="64" viewBox="0 0 64 64" fill="none" xmlns="http://www.w3.org/2000/svg">
<path d="M8 21.3335H52.8C53.9201 21.3335 54.4802 21.3335 54.908 21.5515C55.2843 21.7432 55.5903 22.0492 55.782 22.4255C56 22.8533 56 23.4134 56 24.5335V50.1335C56 51.2536 56 51.8137 55.782 52.2415C55.5903 52.6178 55.2843 52.9238 54.908 53.1155C54.4802 53.3335 53.9201 53.3335 52.8 53.3335H11.2C10.0799 53.3335 9.51984 53.3335 9.09202 53.1155C8.71569 52.9238 8.40973 52.6178 8.21799 52.2415C8 51.8137 8 51.2536 8 50.1335V21.3335Z" fill="#7A13CE"/>
<path d="M21.3333 36.0002L27.9999 42.6668L41.3333 29.3335" stroke="white" stroke-width="4"/>
<path d="M8 17.3335C8 15.4479 8 14.5051 8.58579 13.9193C9.17157 13.3335 10.1144 13.3335 12 13.3335H25.0098C25.8273 13.3335 26.2361 13.3335 26.6036 13.4857C26.9711 13.638 27.2602 13.927 27.8382 14.5051L34.6667 21.3335H8V17.3335Z" fill="#7A13CE"/>
</svg>
