<svg width="40" height="40" viewBox="0 0 40 40" fill="none" xmlns="http://www.w3.org/2000/svg">
<g clip-path="url(#clip0_13_282)">
<path d="M29.4277 10.4951H10.2479V29.6749H29.4277V10.4951Z" fill="black"/>
<path d="M10.2479 20.0849C15.5442 20.0849 19.8378 15.7914 19.8378 10.4951C19.8378 5.1987 15.5442 0.905151 10.2479 0.905151C4.9515 0.905151 0.657959 5.1987 0.657959 10.4951C0.657959 15.7914 4.9515 20.0849 10.2479 20.0849Z" fill="#48C4D3"/>
<path d="M10.2266 20.0578C15.5229 20.0578 19.8165 15.7642 19.8165 10.4679C19.8165 5.17153 15.5229 0.877991 10.2266 0.877991C4.9302 0.877991 0.636658 5.17153 0.636658 10.4679C0.636658 15.7642 4.9302 20.0578 10.2266 20.0578Z" fill="#48C4D3"/>
<path d="M10.2947 20.0311C15.5788 20.0168 19.8596 15.7311 19.8596 10.4428C19.8596 5.15507 15.5793 0.867856 10.2953 0.854004L10.2947 20.0311Z" fill="white"/>
<path d="M19.8148 10.4428C19.801 5.15828 15.5143 0.877991 10.2265 0.877991C4.93878 0.877991 0.652097 5.15828 0.638245 10.4428H19.8148Z" fill="black"/>
<path d="M29.4703 20.0594C34.7666 20.0594 39.0602 15.7658 39.0602 10.4695C39.0602 5.17312 34.7666 0.879578 29.4703 0.879578C24.1739 0.879578 19.8804 5.17312 19.8804 10.4695C19.8804 15.7658 24.1739 20.0594 29.4703 20.0594Z" fill="#48C4D3"/>
<path d="M19.8825 10.4695C19.8969 15.7535 24.182 20.0338 29.4703 20.0338C34.758 20.0338 39.0453 15.7535 39.0591 10.4695H19.8825Z" fill="white"/>
<path d="M29.4703 20.0577C34.7548 20.0434 39.0351 15.7572 39.0351 10.4694C39.0351 5.18168 34.7548 0.894467 29.4708 0.880615L29.4703 20.0577Z" fill="black"/>
<path d="M29.4703 39.2381C34.7666 39.2381 39.0602 34.9445 39.0602 29.6482C39.0602 24.3518 34.7666 20.0583 29.4703 20.0583C24.1739 20.0583 19.8804 24.3518 19.8804 29.6482C19.8804 34.9445 24.1739 39.2381 29.4703 39.2381Z" fill="#48C4D3"/>
<path d="M29.4459 20.0349C24.1618 20.0492 19.881 24.3354 19.881 29.6232C19.881 34.9109 24.1618 39.1981 29.4459 39.2125V20.0349Z" fill="white"/>
<path d="M19.8814 29.6482C19.8964 34.9328 24.1825 39.2125 29.4708 39.2125C34.7575 39.2125 39.0447 34.9328 39.0591 29.6482H19.8814Z" fill="black"/>
<path d="M10.2905 39.2786C15.5868 39.2786 19.8804 34.985 19.8804 29.6887C19.8804 24.3923 15.5868 20.0988 10.2905 20.0988C4.99413 20.0988 0.700592 24.3923 0.700592 29.6887C0.700592 34.985 4.99413 39.2786 10.2905 39.2786Z" fill="#48C4D3"/>
<path d="M19.8795 29.637C19.8652 24.3524 15.579 20.0721 10.2912 20.0721C5.00294 20.0721 0.716259 24.3524 0.701874 29.6365L19.8795 29.637Z" fill="white"/>
<path d="M10.2654 20.0759C4.98088 20.0903 0.700592 24.3764 0.700592 29.6642C0.700592 34.9519 4.98088 39.2386 10.2654 39.253V20.0759Z" fill="black"/>
</g>
<defs>
<clipPath id="clip0_13_282">
<rect width="39.6851" height="40" fill="white"/>
</clipPath>
</defs>
</svg>
