<svg width="180" height="180" viewBox="0 0 180 180" fill="none" xmlns="http://www.w3.org/2000/svg">
<path d="M37.5 24.5C37.5 23.3954 38.3954 22.5 39.5 22.5H89.75C89.8881 22.5 90 22.6119 90 22.75V73C90 74.1046 90.8954 75 92 75H142.25C142.388 75 142.5 75.1119 142.5 75.25V155.5C142.5 156.605 141.605 157.5 140.5 157.5H39.5C38.3954 157.5 37.5 156.605 37.5 155.5V24.5Z" fill="white"/>
<path d="M97.5 66.5V23.1036C97.5 22.8808 97.7693 22.7693 97.9268 22.9268L142.073 67.0732C142.231 67.2307 142.119 67.5 141.896 67.5H98.5C97.9477 67.5 97.5 67.0523 97.5 66.5Z" fill="#7A13CE"/>
</svg>
