<svg width="24" height="24" viewBox="0 0 24 24" fill="none" xmlns="http://www.w3.org/2000/svg">
<path fill-rule="evenodd" clip-rule="evenodd" d="M24 0H0V24H24V0ZM20.6292 7.47199C20.4217 6.70098 19.8138 6.09308 19.0428 5.8855C17.6342 5.5 12 5.5 12 5.5C12 5.5 6.36572 5.5 4.95716 5.87067C4.20098 6.07825 3.57825 6.70098 3.37067 7.47199C3 8.88055 3 11.8015 3 11.8015C3 11.8015 3 14.7372 3.37067 16.1309C3.57825 16.9019 4.18616 17.5098 4.95716 17.7174C6.38055 18.1029 12 18.1029 12 18.1029C12 18.1029 17.6342 18.1029 19.0428 17.7322C19.8138 17.5247 20.4217 16.9168 20.6292 16.1458C20.9999 14.7372 20.9999 11.8163 20.9999 11.8163C20.9999 11.8163 21.0147 8.88055 20.6292 7.47199ZM10.2059 14.397L14.8912 11.6985L10.2059 9V14.397Z" fill="white"/>
</svg>
