<svg width="40" height="40" viewBox="0 0 40 40" fill="none" xmlns="http://www.w3.org/2000/svg">
<rect width="40" height="40" fill="#7A13CE"/>
<path fill-rule="evenodd" clip-rule="evenodd" d="M13.5427 25.5042C13.1125 25.77 12.6849 25.9832 12.2824 26.0993C11.4864 26.329 10.655 25.8699 10.4254 25.0739C10.1957 24.2779 10.6548 23.4465 11.4508 23.2169C11.6194 23.1683 12.091 22.9186 12.8822 22.3002C13.2353 22.0242 13.6208 21.7001 14.0313 21.3346C14.7495 18.0187 16.1845 14.3669 17.8111 11.372C18.7176 9.70294 19.7108 8.18737 20.7128 7.02537C21.6562 5.93136 22.821 4.89512 24.1144 4.62631C25.1427 4.41259 26.587 4.3498 27.4414 5.48966C27.8436 6.02624 27.9459 6.63802 27.9379 7.14514C27.93 7.6509 27.8127 8.16195 27.6554 8.63851C27.0467 10.483 25.4471 12.9266 23.6293 15.2847C21.7741 17.6913 19.5567 20.1792 17.5527 22.1442C17.294 22.3979 17.0377 22.644 16.785 22.8811C16.7814 22.9015 16.7779 22.9219 16.7744 22.9422C16.5 24.5509 16.4712 25.8893 16.6754 26.8587C16.8759 27.8106 17.2432 28.1969 17.6188 28.3598C18.0688 28.5548 18.9939 28.6386 20.712 27.9747C22.3991 27.3228 24.631 26.0321 27.5088 23.8629C28.1703 23.3643 29.1109 23.4963 29.6095 24.1579C30.1082 24.8194 29.9761 25.7599 29.3146 26.2586C26.3295 28.5086 23.8457 29.98 21.7934 30.773C19.772 31.5542 17.9338 31.766 16.4257 31.1123C14.8433 30.4264 14.0579 28.9872 13.7398 27.477C13.6098 26.8595 13.5484 26.1962 13.5427 25.5042ZM18.6628 16.5943C19.5636 15.5674 20.4453 14.5012 21.2533 13.4531C23.0619 11.107 24.3723 9.01441 24.8066 7.69836C24.8255 7.641 24.8418 7.58767 24.856 7.53824C24.8154 7.54542 24.7717 7.5538 24.7249 7.56354C24.4678 7.61696 23.8618 7.96748 22.9847 8.98454C22.1663 9.93361 21.2894 11.2534 20.4474 12.8038C19.8046 13.9873 19.1978 15.2758 18.6628 16.5943ZM25.3297 7.50641C25.329 7.5071 25.32 7.50604 25.3045 7.50111C25.3226 7.50324 25.3304 7.50571 25.3297 7.50641ZM24.9377 7.06838C24.9375 7.06664 24.9374 7.06573 24.9375 7.06571Z" fill="white"/>
<path fill-rule="evenodd" clip-rule="evenodd" d="M22.8602 13.2734C18.8696 13.9725 14.137 15.2758 11.6258 16.4286C10.8729 16.7742 9.98241 16.4441 9.63678 15.6912C9.29115 14.9383 9.6213 14.0478 10.3742 13.7022C13.2152 12.398 18.2294 11.039 22.3425 10.3184C24.3939 9.95901 26.341 9.73634 27.7417 9.78866C28.3872 9.81277 29.1762 9.89882 29.7923 10.2446C30.1342 10.4365 30.562 10.7882 30.7547 11.381C30.9496 11.9808 30.8074 12.5292 30.6229 12.9094C30.2611 13.6546 29.3637 13.9655 28.6184 13.6037C28.2649 13.4321 28.0092 13.14 27.8766 12.8008C27.8043 12.795 27.7223 12.79 27.6297 12.7866C26.5548 12.7464 24.8607 12.9229 22.8602 13.2734Z" fill="white"/>
<line x1="32" y1="35" x2="8" y2="35" stroke="#09DBCE" stroke-width="4"/>
</svg>
